<svg width="233" height="50" viewBox="0 0 233 50" fill="none" xmlns="http://www.w3.org/2000/svg">
<path d="M192.605 50L191.322 49.5324L191.782 48.3518C192.582 48.6335 193.427 48.944 193.705 47.8515L191.315 42.188H192.925L194.581 45.9579L196.237 42.188H197.754L194.92 48.7772C194.466 49.5515 193.985 49.747 193.155 50H192.603H192.605Z" fill="white"/>
<path d="M232.891 8.82413C232.916 9.06945 232.916 9.49877 232.891 9.74409C232.402 14.4819 225.294 14.1484 225.16 9.42593C225.02 4.41978 232.402 4.08822 232.891 8.82413ZM228.36 6.27314C225.29 6.79062 225.411 12.1283 228.707 12.4082C233.077 12.7781 233.056 5.4835 228.36 6.27314Z" fill="#FF7900"/>
<path d="M0.00195312 1.74803C3.16242 1.57937 6.35355 1.66178 9.52552 1.65986C12.6975 1.65795 15.812 1.47395 18.9034 1.74803C28.1778 2.57408 32.011 12.7244 27.2675 20.3064C27.0816 20.6035 26.1922 21.7036 26.2114 21.9183C28.5842 24.6763 31.0815 27.7505 31.7849 31.4323C32.3829 34.5659 31.6143 37.5251 30.0676 40.2524C29.8606 40.4 25.8664 38.5812 25.4141 38.2592C23.8502 37.1437 24.8928 35.5108 25.1017 33.9526C25.4601 31.277 24.6187 28.7165 22.4376 27.0778C18.9628 24.4674 14.0947 25.4889 10.0277 25.2781V19.58H16.9715C17.7075 19.58 19.1794 19.0511 19.8387 18.6773C23.1564 16.7971 23.2311 12.4484 21.3797 9.47766C19.833 6.99567 17.7228 7.43074 15.2293 7.45182C10.1542 7.49782 5.06369 7.45565 0.00195312 7.35599V1.74994V1.74803Z" fill="white"/>
<path d="M159.405 29.8646L161.883 31.3442L159.823 34.9186L155.283 31.9134C150.489 32.7605 146.777 30.4223 146.426 25.4181C146.704 19.8791 146.068 13.9971 146.426 8.49834C146.675 4.6594 149.06 2.19465 152.916 1.93208C157.539 1.61776 160.668 3.97709 160.967 8.68233C161.309 14.0373 160.701 19.7488 160.967 25.1421C160.837 26.2077 160.661 27.2848 160.245 28.2795C160.011 28.8392 159.62 29.303 159.405 29.8646ZM153.585 7.37905C152.431 7.42121 152.377 8.53284 152.228 9.42406C152.458 14.273 151.917 19.4095 152.222 24.224C152.262 24.845 152.427 26.3035 153.14 26.522C153.629 26.6715 154.248 26.614 154.566 26.1904C154.995 25.6174 155.049 24.1359 155.081 23.396C155.26 19.3309 155.308 14.1063 155.081 10.0604C155.053 9.53138 154.949 8.40059 154.696 7.96361C154.48 7.59179 154.012 7.3618 153.585 7.37713V7.37905Z" fill="#FF7900"/>
<path d="M64.7542 2.2061C67.5715 2.34218 70.5595 2.02402 73.3578 2.20226C77.1794 2.44567 78.707 4.42743 78.9216 8.1303C79.098 11.1451 79.0999 13.7632 76.1982 15.2485C76.1023 15.2984 76.0237 15.2006 76.0678 15.4402C78.1282 15.858 78.8239 17.9816 79.0903 19.8196C79.6653 23.7851 79.2206 31.8022 73.6299 31.8022H64.7542V2.2061ZM70.5499 6.80209C70.5231 8.22612 70.5844 9.65591 70.5538 11.0799C70.5461 11.4537 70.2912 13.2035 70.5442 13.3799C71.6673 13.4412 72.5969 13.6348 72.9169 12.3372C73.1163 11.5265 73.1431 8.72444 73.0262 7.86772C72.9764 7.4959 72.547 6.80209 72.1599 6.80209H70.5499ZM70.5499 26.5641C71.836 26.683 73.1642 26.405 73.3769 24.9312C73.5322 23.8579 73.5053 21.0194 73.3903 19.9116C73.3367 19.3903 73.1316 18.6217 72.7119 18.2921C72.6467 18.2403 72.2787 18.0161 72.2519 18.0161H70.5499V26.5641Z" fill="white"/>
<path d="M110.283 26.2882L109.716 27.3289C107.958 29.462 104.052 29.0826 102.536 26.8152C101.355 25.05 101.457 23.2772 101.457 21.282C101.459 18.1752 100.991 11.9616 101.938 9.26303C103.1 5.96074 107.671 5.15769 109.714 7.96742L110.281 9.19212V6.61813H116.443L116.447 28.6341C116.27 31.4956 115.678 34.0715 112.859 35.3422C110.436 36.4346 105.559 36.4423 103.109 35.4303C102.774 35.2923 100.98 34.336 101.03 34.0025L103.013 30.6446C104.909 31.691 108.755 33.0192 109.932 30.3935C110.017 30.2038 110.283 29.4276 110.283 29.2723V26.2843V26.2882ZM108.326 10.9573C107.577 11.1279 107.462 12.4618 107.435 13.0981C107.412 13.6041 107.527 14.0354 107.531 14.4723C107.542 16.9908 107.329 19.9251 107.523 22.3841C107.594 23.2887 107.857 24.2336 108.949 24.1761C109.903 24.1262 110.22 22.9782 110.285 22.1943C110.536 19.1891 110.097 15.858 110.289 12.8183C110.151 11.7431 109.603 10.666 108.326 10.9573Z" fill="white"/>
<path d="M125 8.82406L125.689 7.7201C129.058 4.39481 133.974 7.18154 133.834 11.7162L133.83 31.8021H127.76V12.3621C127.76 12.2011 127.435 11.4325 127.302 11.2831C126.84 10.7637 125.872 10.7982 125.42 11.3099C125.324 11.4191 125 11.9826 125 12.0861V31.6641L124.862 31.8021H118.747V2.20605H124.862L125 2.34405V8.82406Z" fill="white"/>
<path d="M41.4388 40.2579L41.3468 40.0739C43.5279 38.1957 45.5403 36.0663 46.9279 33.5173C52.3078 23.6487 47.0238 9.30298 35.3421 7.47071C34.0446 7.26755 32.4806 7.36721 31.254 6.95898C29.5712 6.39933 28.5823 4.06683 27.5952 2.7118C34.4336 -0.117101 42.468 2.0314 47.8326 6.84398C56.1008 14.2631 58.071 26.6252 52.7218 36.3653C51.8076 38.0308 50.5407 40.256 48.3366 40.256H41.4388V40.2579Z" fill="#FF7900"/>
<path d="M6.66976 9.83618C6.7215 9.84576 6.87483 9.93968 6.9055 9.99143L7.05308 41.2549C7.24474 41.7552 7.63764 42.1251 8.16279 42.2612C9.75356 42.5256 12.9811 42.0197 14.3706 42.5832C14.8019 42.7576 15.2293 43.3613 15.5934 43.6584C16.776 44.6186 18.1214 45.5577 19.4151 46.3646C19.6662 46.5218 20.7012 47.0124 20.7874 47.1063C20.8737 47.2002 20.8967 47.2501 20.8832 47.3785L20.7491 47.6219L9.79189 47.7101C9.38557 47.5395 9.05209 47.7101 8.6956 47.7101L0 47.7062V9.83809H6.66784L6.66976 9.83618Z" fill="white"/>
<path d="M178.439 6.52612V31.8022H172.461V29.3202C171.917 30.0198 171.618 30.98 170.836 31.5109C169.673 32.3024 167.319 32.2009 166.079 31.6067C164.164 30.6887 163.733 28.36 163.626 26.4281C163.273 20.017 163.902 13.2879 163.626 6.84237L163.768 6.52612H169.561L169.699 6.66412V25.9662C169.699 26.4262 170.06 27.2062 170.579 27.2944C171.325 27.4209 171.934 27.279 172.202 26.5373C172.287 26.3054 172.459 25.4487 172.459 25.2321V6.66604L172.597 6.52804H178.437L178.439 6.52612Z" fill="#FF7900"/>
<path d="M16.4195 26.9319L16.6246 27.1848C16.914 28.2543 17.1095 29.364 17.4315 30.4239C19.5531 37.4195 25.2493 41.9771 32.609 42.372C38.5984 42.692 44.9519 41.9963 50.9163 42.3681C52.373 42.4582 53.3907 42.7189 54.0749 44.0835C54.2512 44.4342 55.3245 47.4835 55.1903 47.61C53.613 47.633 52.0299 47.5813 50.4506 47.6062C43.3228 47.7173 35.4456 48.2617 28.381 47.4241C20.751 46.5214 14.4761 40.8636 11.6434 33.9121C10.7579 31.7387 10.135 29.2893 10.2155 26.9299H16.4233L16.4195 26.9319Z" fill="#FF7900"/>
<path d="M195.456 19.762H186.719V25.6901C186.719 25.8798 186.93 26.5545 187.037 26.7519C187.25 27.1467 187.506 27.3652 187.959 27.3958C189.164 27.4763 189.352 26.7078 189.479 25.6882C189.525 25.3087 189.555 24.7145 189.576 24.314C189.615 23.5665 189.54 22.8056 189.573 22.0581H195.55C195.533 22.6829 195.573 23.3154 195.55 23.9421C195.334 29.4964 193.233 32.3982 187.315 32.0819C182.299 31.8136 180.86 28.588 180.647 24.0399C180.492 20.7318 180.473 16.4866 180.647 13.1862C180.942 7.62232 185.145 5.5524 190.33 6.45895C197.001 7.62616 195.391 14.7923 195.458 19.762H195.456ZM189.569 16.7281V12.914C189.569 12.6016 189.36 11.7334 189.205 11.4402C188.61 10.3324 187.179 10.687 186.836 11.8369C186.772 12.0516 186.627 12.7301 186.627 12.914V16.7281H189.571H189.569Z" fill="#FF7900"/>
<path d="M214.358 6.52612L216.106 24.6341L218.22 6.52612H223.876L219.217 33.3508C218.918 34.5717 218.392 35.5913 217.074 35.898C216.951 35.9267 216.365 36.0302 216.286 36.0302H209.158V32.1702H212.332C212.75 32.1702 212.666 31.4035 212.643 31.1256L208.704 6.74845C208.683 6.67179 208.798 6.52804 208.836 6.52804H214.354L214.358 6.52612Z" fill="#FF7900"/>
<path d="M143.12 7.53785H144.776V12.1339H143.12V27.0699C143.12 27.6487 144.385 27.6142 144.776 27.5759V31.6199C142.606 32.1067 138.541 32.8235 137.558 30.148C137.48 29.9333 137.234 28.9961 137.234 28.8178V12.1358H135.486V7.67777L135.624 7.53977H137.234V2.20972H142.982L143.12 2.34771V7.54169V7.53785Z" fill="white"/>
<path d="M208.148 6.24976V11.3057C206.722 11.4227 204.995 11.4495 203.824 12.3618V31.8018H197.801V6.52575H203.686L203.824 6.66374V9.19173L204.522 7.91337C205.411 6.78066 206.715 6.26126 208.146 6.25167L208.148 6.24976Z" fill="#FF7900"/>
<path d="M91.5195 6.24976V11.3057C90.5688 11.3613 89.5511 11.438 88.6292 11.6795C88.336 11.7561 87.1975 12.103 87.1975 12.4538V31.8018H81.1277V6.61775H87.1975V9.09974C87.6077 8.62826 87.8089 7.99961 88.2536 7.5358C89.1314 6.61391 90.289 6.33984 91.5214 6.25167L91.5195 6.24976Z" fill="white"/>
<path d="M99.0613 6.61792H92.9915V31.802H99.0613V6.61792Z" fill="white"/>
<path d="M161.884 42.188V42.7399C162.851 41.8583 164.661 41.7989 165.431 42.9297C165.696 42.9718 165.836 42.6364 166.029 42.5157C167.302 41.7126 169.268 42.0078 169.732 43.5832C169.765 43.6925 169.887 44.279 169.887 44.3479V47.794H168.231V44.5319C168.231 44.4974 168.072 44.0566 168.036 43.9934C167.71 43.4203 166.917 43.3647 166.395 43.7078C166.276 43.7864 165.931 44.256 165.931 44.3479V47.794H164.275V44.5319C164.275 44.4974 164.116 44.0566 164.08 43.9934C163.754 43.4203 162.961 43.3647 162.439 43.7078C162.321 43.7864 161.976 44.256 161.976 44.3479V47.794H160.32V42.188H161.884Z" fill="white"/>
<path d="M99.0632 5.05598H92.9915V0.137995L93.1295 0H98.9252L99.0632 0.137995V5.05598Z" fill="white"/>
<path d="M172.921 47.3361V49.9101H171.357V42.1901H172.921V42.7421C174.175 41.64 176.256 41.9563 177.076 43.4167C178.311 45.615 176.795 48.2465 174.173 47.8824C173.705 47.8172 173.35 47.4895 172.923 47.3381L172.921 47.3361ZM175.372 46.1996C176.17 45.456 175.859 43.6122 174.717 43.4723C172.342 43.1829 172.436 46.5369 174.355 46.5906C174.654 46.5982 175.154 46.4028 175.371 46.1996H175.372Z" fill="white"/>
<path d="M138.798 47.7962H136.958L136.418 46.2879L132.922 46.2438L132.36 47.7962H130.612L133.966 40.4365L135.534 40.5343L138.798 47.7962ZM135.854 44.9463L134.75 42.1883C134.637 42.1979 134.595 42.3148 134.549 42.401C134.29 42.8783 133.763 44.1451 133.598 44.6665C133.568 44.7623 133.539 44.8428 133.556 44.9463H135.856H135.854Z" fill="white"/>
<path d="M72.2961 42.7399C73.4077 41.7586 75.5447 41.8161 76.2059 43.2919C76.2443 43.3782 76.4359 43.9455 76.4359 43.9819V47.7959H74.78V44.2579C74.78 44.2349 74.5845 43.8976 74.5423 43.8516C74.0996 43.359 73.1758 43.4088 72.7081 43.842C72.6066 43.9359 72.2961 44.532 72.2961 44.6259V47.7959H70.6401V40.1219L70.7781 39.9839H72.1581L72.2961 40.1219V42.7419V42.7399Z" fill="white"/>
<path d="M148.895 40.3751C150.211 40.216 151.656 40.5111 152.496 41.6036L151.444 42.6251C151.083 42.2629 150.66 41.9256 150.135 41.8432C146.677 41.2912 146.288 46.0942 149.261 46.4852C150.209 46.6098 150.815 46.2533 151.524 45.6879L152.592 46.6462C150.564 48.9327 146.332 48.1564 145.646 45.0401C145.15 42.7842 146.568 40.6568 148.895 40.3751Z" fill="white"/>
<path d="M93.2674 40.4421V41.8202H89.4054V43.7502H92.8074V45.1301H89.4054V47.7961H87.6575V40.5801L87.7955 40.4421H93.2674Z" fill="white"/>
<path d="M79.1957 45.4981C79.6882 46.8474 81.2694 46.8915 82.2776 46.0539C82.7931 46.8378 83.6154 46.9452 82.4041 47.5546C80.3591 48.5839 77.4631 47.4243 77.534 44.9001C77.6279 41.5557 82.6264 41.0631 83.3988 44.1009C83.5004 44.4996 83.6556 45.1627 83.3796 45.4981H79.1938H79.1957ZM81.9537 44.4862C81.7524 42.9356 79.4257 42.9299 79.1938 44.4862H81.9537Z" fill="white"/>
<path d="M155.515 42.1209C160.369 41.4635 160.473 48.4878 155.501 47.8783C152.201 47.4739 152.086 42.5866 155.515 42.1209ZM155.603 43.4951C155.072 43.6139 154.668 44.3058 154.625 44.8214C154.474 46.7092 156.889 47.2267 157.445 45.611C157.891 44.3115 156.99 43.1846 155.603 43.4951Z" fill="white"/>
<path d="M123.805 47.7959H122.241L122.195 47.2459C121.443 48.2348 119.237 48.0969 118.634 47.0351C118.177 46.2301 118.411 45.1894 119.276 44.7888C119.464 44.7006 120.186 44.4879 120.355 44.4879H122.149C122.143 43.3609 120.974 43.2517 120.088 43.4874C119.734 43.5814 119.485 43.8382 119.12 43.8382L118.691 42.74C119.902 41.912 122.542 41.7069 123.421 43.0773C123.538 43.2613 123.805 43.9838 123.805 44.1659V47.7959ZM122.149 45.404C121.587 45.6014 120.213 45.2181 120.052 45.9311C119.832 46.9086 121.233 47.0082 121.827 46.508C122.202 46.1937 122.168 45.8621 122.149 45.404Z" fill="white"/>
<path d="M183.499 47.7962H181.935L181.889 47.2462C181.111 48.3463 178.385 48.0358 178.169 46.6424C178.029 45.7359 178.232 45.0823 179.112 44.7469C179.255 44.6913 179.951 44.4882 180.049 44.4882H181.843C181.762 43.137 180.501 43.2941 179.518 43.5893C179.286 43.6583 179.052 43.9381 178.849 43.7618L178.355 42.7977C179.491 41.8835 182.186 41.7379 183.079 43.0239C183.19 43.183 183.499 43.9266 183.499 44.0742V47.7962ZM181.843 45.4982H180.141C179.691 45.4982 179.296 46.8264 180.695 46.7919C181.471 46.7728 181.966 46.2936 181.843 45.4982Z" fill="white"/>
<path d="M99.1552 47.7961H97.5912L97.5452 47.246C96.6789 48.3519 94.0475 48.0721 93.8271 46.5484C93.6929 45.6169 94.0072 44.9998 94.8965 44.6931C95.0383 44.6433 95.6018 44.488 95.7034 44.488H97.4973C97.5223 43.4876 96.6483 43.2998 95.8184 43.409C95.3508 43.4703 94.9655 43.7578 94.5515 43.8057L94.0072 42.7957C95.1955 41.8891 97.7906 41.7071 98.7316 43.0218C98.8696 43.2154 99.1514 43.8651 99.1514 44.0721V47.7942L99.1552 47.7961ZM97.4993 45.4981H95.7973C95.7686 45.4981 95.4274 45.8488 95.4006 45.9312C95.0038 47.2326 97.9573 47.0256 97.4973 45.4981H97.4993Z" fill="white"/>
<path d="M190.765 47.7962H189.109V44.3501C189.109 43.8786 188.336 43.4608 187.88 43.4819C187.384 43.5068 186.625 44.0186 186.625 44.5322V47.7943H184.969V42.1882H186.533V42.7383C186.849 42.6348 187.058 42.3856 187.389 42.263C188.271 41.9333 189.563 42.0368 190.197 42.7996C190.389 43.0296 190.763 43.7962 190.763 44.0722V47.7943L190.765 47.7962Z" fill="white"/>
<path d="M113.135 42.188V45.45C113.135 46.0403 113.802 46.5291 114.373 46.5118C114.944 46.4946 115.619 45.9234 115.619 45.358V42.188H117.275V47.794H115.711V47.2421C114.34 48.3863 112.019 48.0796 111.594 46.163C111.573 46.071 111.481 45.4999 111.481 45.45V42.188H113.137H113.135Z" fill="white"/>
<path d="M69.9058 41.8202H67.5139V47.7942H65.766V41.8202H63.4661V40.4421L69.7544 40.4556C70.0477 40.5514 69.8483 41.5403 69.9058 41.8202Z" fill="white"/>
<path d="M105.961 43.5662L104.717 44.1891C103.765 42.8226 101.762 43.4186 101.913 45.1742C102.045 46.7228 103.964 47.0697 104.719 45.776L105.829 46.4143C105.846 47.202 104.688 47.7923 103.973 47.8766C99.0766 48.4516 99.0401 41.6841 103.797 42.0981C104.704 42.1767 105.62 42.6999 105.961 43.5662Z" fill="white"/>
<path d="M108.813 40.9021V42.2801H110.193V43.5662H108.813V46.0942C108.813 46.5311 109.842 46.8129 110.147 46.4181L110.551 47.5489C109.725 48.1871 107.882 47.9916 107.397 46.9585C107.339 46.834 107.157 46.2782 107.157 46.1862V43.5662H106.329V42.2801H107.157V40.9021H108.813Z" fill="white"/>
<path d="M202.446 40.4421C202.743 40.4766 203.175 40.352 203.418 40.5283C203.746 40.766 204.919 43.0161 205.068 43.018C205.197 43.0467 205.22 42.9375 205.283 42.8647C205.68 42.3951 206.442 40.7928 206.808 40.5283C207.054 40.352 207.483 40.4766 207.78 40.4421V44.8541H206.676V42.4641C206.176 42.8091 205.819 43.9782 205.434 44.3021C204.691 44.925 204.05 42.8627 203.548 42.5561V44.7161C203.282 44.9863 202.799 44.8062 202.444 44.8541V40.4421H202.446Z" fill="white"/>
<path d="M126.932 47.7959H125.276V40.1199L125.414 39.9819H126.794L126.932 40.1199V47.7959Z" fill="white"/>
<path d="M141.28 40.4421H139.624V47.7942H141.28V40.4421Z" fill="white"/>
<path d="M201.894 40.4421V41.3621H200.33V44.8541H199.226V41.3621H197.662C197.697 41.0593 197.547 40.6625 197.8 40.4421H201.894Z" fill="white"/>
<path d="M229.625 6.80186C230.465 6.93985 230.538 8.08023 230.388 8.75871C230.319 9.0692 229.896 9.2321 229.949 9.28193C229.972 9.30493 230.317 9.39309 230.317 9.51384V11.8578H229.305V9.78983C229.305 9.70167 228.976 9.49659 228.845 9.55984V11.8578H227.741V6.80186C228.318 6.86894 229.077 6.71178 229.627 6.80186H229.625ZM229.303 8.64179L229.263 7.90007L228.843 7.81382V8.64179H229.303Z" fill="#FF7900"/>
</svg>
